<svg xmlns="http://www.w3.org/2000/svg" style="display:none">
<symbol id="icon-logo" viewBox="0 0 107 45">

<path d="M4.875 9.73828L3.09375 8.66016C1.97656 7.98047 1.17969 7.3125 0.703125 6.65625C0.234375 5.99219 0 5.23047 0 4.37109C0 3.08203 0.445312 2.03516 1.33594 1.23047C2.23438 0.425781 3.39844 0.0234375 4.82812 0.0234375C6.19531 0.0234375 7.44922 0.40625 8.58984 1.17188V3.83203C7.41016 2.69922 6.14062 2.13281 4.78125 2.13281C4.01562 2.13281 3.38672 2.3125 2.89453 2.67188C2.40234 3.02344 2.15625 3.47656 2.15625 4.03125C2.15625 4.52344 2.33594 4.98438 2.69531 5.41406C3.05469 5.84375 3.63672 6.29297 4.44141 6.76172L6.23438 7.81641C8.23438 9.00391 9.23438 10.5195 9.23438 12.3633C9.23438 13.6758 8.79297 14.7422 7.91016 15.5625C7.03516 16.3828 5.89453 16.793 4.48828 16.793C2.87109 16.793 1.39844 16.2969 0.0703125 15.3047V12.3281C1.33594 13.9297 2.80078 14.7305 4.46484 14.7305C5.19922 14.7305 5.80859 14.5273 6.29297 14.1211C6.78516 13.707 7.03125 13.1914 7.03125 12.5742C7.03125 11.5742 6.3125 10.6289 4.875 9.73828ZM23.3555 0.234375H25.6992V16.6055H23.3555V9.48047H14.1562V16.6055H11.8125V0.234375H14.1562V7.3125H23.3555V0.234375ZM37.3594 0C39.8906 0 41.9961 0.800781 43.6758 2.40234C45.3633 4.00391 46.207 6.01172 46.207 8.42578C46.207 10.8398 45.3555 12.8398 43.6523 14.4258C41.957 16.0039 39.8164 16.793 37.2305 16.793C34.7617 16.793 32.7031 16.0039 31.0547 14.4258C29.4141 12.8398 28.5938 10.8555 28.5938 8.47266C28.5938 6.02734 29.4219 4.00391 31.0781 2.40234C32.7344 0.800781 34.8281 0 37.3594 0ZM37.4531 2.22656C35.5781 2.22656 34.0352 2.8125 32.8242 3.98438C31.6211 5.15625 31.0195 6.65234 31.0195 8.47266C31.0195 10.2383 31.625 11.707 32.8359 12.8789C34.0469 14.0508 35.5625 14.6367 37.3828 14.6367C39.2109 14.6367 40.7344 14.0391 41.9531 12.8438C43.1797 11.6484 43.793 10.1602 43.793 8.37891C43.793 6.64453 43.1797 5.1875 41.9531 4.00781C40.7344 2.82031 39.2344 2.22656 37.4531 2.22656ZM48.9492 16.6055V0.210938H54.1406C55.7031 0.210938 56.9492 0.632812 57.8789 1.47656C58.8086 2.32031 59.2734 3.45312 59.2734 4.875C59.2734 5.82812 59.0352 6.67188 58.5586 7.40625C58.082 8.14062 57.4297 8.67578 56.6016 9.01172C55.7734 9.33984 54.5859 9.50391 53.0391 9.50391H51.3047V16.6055H48.9492ZM53.7305 2.29688H51.3047V7.41797H53.8711C54.8242 7.41797 55.5586 7.19531 56.0742 6.75C56.5898 6.29688 56.8477 5.65234 56.8477 4.81641C56.8477 3.13672 55.8086 2.29688 53.7305 2.29688ZM15.8906 40C15.8906 41.3984 15.4102 42.5156 14.4492 43.3516C13.4961 44.1875 12.1602 44.6055 10.4414 44.6055H1.05469V28.3633H8.90625C9.92188 28.3633 10.8047 28.4609 11.5547 28.6562C12.3125 28.8516 12.9219 29.1211 13.3828 29.4648C13.8438 29.8008 14.1875 30.1992 14.4141 30.6602C14.6406 31.1211 14.7539 31.625 14.7539 32.1719C14.7539 32.7656 14.6367 33.3164 14.4023 33.8242C14.168 34.3242 13.875 34.7383 13.5234 35.0664C13.1797 35.3867 12.832 35.6133 12.4805 35.7461C13.5898 36.1836 14.4336 36.7383 15.0117 37.4102C15.5977 38.0742 15.8906 38.9375 15.8906 40ZM10.1719 33.0391C10.1719 32.2578 9.91406 31.7383 9.39844 31.4805C8.88281 31.2227 8.07812 31.0938 6.98438 31.0938H5.95312V34.9844H7.00781C8.125 34.9844 8.92969 34.8555 9.42188 34.5977C9.92188 34.3398 10.1719 33.8203 10.1719 33.0391ZM10.9688 39.8008C10.9688 38.4102 9.96094 37.7148 7.94531 37.7148H5.95312V41.875H7.94531C9.96094 41.875 10.9688 41.1836 10.9688 39.8008ZM36.1641 44.6055H31.1484L29.8242 41.3125H22.7695L21.4219 44.6055H16.4062L23.5898 28.3633H29.0039L36.1641 44.6055ZM28.6992 38.4883L26.3203 32.5586L23.918 38.4883H28.6992ZM55.4062 44.6055H49.4297L43.2188 37V44.6055H38.3203V28.3633H43.2188V35.6289L49.1016 28.3633H54.4219L48.375 35.9688L55.4062 44.6055ZM69.7852 44.6055H57.5391V28.3633H69.5859V31.6211H62.4375V34.5977H69.2578V37.8672H62.4375V41.3359H69.7852V44.6055ZM88.8047 44.6055H83.543L82.2656 41.7227C81.7969 40.668 81.375 39.8984 81 39.4141C80.625 38.9219 80.2578 38.6094 79.8984 38.4766C79.5469 38.3359 79.0898 38.2656 78.5273 38.2656H77.9766V44.6055H73.0781V28.3633H81.4102C82.7539 28.3633 83.8555 28.6367 84.7148 29.1836C85.5742 29.7305 86.1914 30.3945 86.5664 31.1758C86.9492 31.957 87.1406 32.6992 87.1406 33.4023C87.1406 34.2227 86.9805 34.918 86.6602 35.4883C86.3477 36.0508 86.0156 36.4609 85.6641 36.7188C85.3125 36.9766 84.918 37.2227 84.4805 37.457C85.0039 37.7617 85.4336 38.125 85.7695 38.5469C86.1133 38.9609 86.5781 39.8047 87.1641 41.0781L88.8047 44.6055ZM82.1484 33.4961C82.1484 32.7461 81.9023 32.2227 81.4102 31.9258C80.918 31.6289 80.1172 31.4805 79.0078 31.4805H77.9766V35.3945H79.0312C80.2266 35.3945 81.043 35.2656 81.4805 35.0078C81.9258 34.7422 82.1484 34.2383 82.1484 33.4961ZM106.172 28.3633L99.8086 37.1641V44.6055H94.9102V37.2578L88.4297 28.3633H93.5156L97.2422 33.4727L100.98 28.3633H106.172Z" fill="#FAF4EA"/>

</symbol>
<symbol id="icon-arrow-1" viewBox="0 0 18 15">

<path d="M0.292706 8.07137C-0.0978183 7.68084 -0.0978184 7.04768 0.292705 6.65715L6.65667 0.293191C7.04719 -0.0973334 7.68036 -0.0973335 8.07088 0.293191C8.4614 0.683715 8.4614 1.31688 8.07088 1.7074L2.41403 7.36426L8.07088 13.0211C8.46141 13.4116 8.46141 14.0448 8.07088 14.4353C7.68036 14.8259 7.04719 14.8259 6.65667 14.4353L0.292706 8.07137ZM17.7617 8.36426L0.999813 8.36426L0.999813 6.36426L17.7617 6.36426L17.7617 8.36426Z" fill="#31261A"/>

</symbol>
<symbol id="icon-icons" viewBox="0 0 32 32">

    <defs>
        <symbol id="icon-instagram" viewBox="0 0 32 32">
            <path d="M0 16c0-8.837 7.163-16 16-16s16 7.163 16 16c0 8.837-7.163 16-16 16s-16-7.163-16-16zM16.001 7.467c-2.317 0-2.608 0.010-3.519 0.052-0.909 0.042-1.528 0.185-2.071 0.396-0.561 0.218-1.037 0.51-1.512 0.984s-0.766 0.95-0.985 1.511c-0.212 0.543-0.356 1.163-0.396 2.071-0.041 0.91-0.051 1.201-0.051 3.519s0.010 2.607 0.052 3.518c0.042 0.909 0.186 1.529 0.396 2.071 0.218 0.561 0.51 1.037 0.984 1.512s0.95 0.767 1.511 0.985c0.543 0.211 1.163 0.355 2.072 0.396 0.91 0.041 1.201 0.052 3.518 0.052s2.608-0.010 3.518-0.052c0.908-0.042 1.529-0.185 2.072-0.396 0.561-0.218 1.036-0.51 1.511-0.985s0.766-0.95 0.985-1.512c0.21-0.543 0.354-1.163 0.396-2.071 0.041-0.91 0.052-1.2 0.052-3.518s-0.011-2.608-0.052-3.519c-0.043-0.909-0.187-1.529-0.396-2.071-0.219-0.561-0.51-1.037-0.985-1.512s-0.949-0.766-1.511-0.984c-0.544-0.211-1.164-0.355-2.073-0.396-0.91-0.041-1.2-0.052-3.518-0.052h0.003z"></path>
            <path d="M15.235 9.005c0.227-0 0.481 0 0.766 0 2.278 0 2.548 0.008 3.448 0.049 0.832 0.038 1.284 0.177 1.584 0.294 0.398 0.155 0.682 0.34 0.981 0.638s0.484 0.583 0.639 0.981c0.117 0.3 0.256 0.752 0.294 1.584 0.041 0.899 0.050 1.17 0.050 3.447s-0.009 2.548-0.050 3.447c-0.038 0.832-0.177 1.284-0.294 1.584-0.155 0.398-0.34 0.682-0.639 0.98s-0.582 0.483-0.981 0.638c-0.3 0.117-0.752 0.256-1.584 0.294-0.9 0.041-1.17 0.050-3.448 0.050s-2.549-0.009-3.448-0.050c-0.832-0.038-1.284-0.177-1.585-0.294-0.398-0.155-0.683-0.34-0.981-0.638s-0.484-0.582-0.639-0.981c-0.117-0.3-0.256-0.752-0.294-1.584-0.041-0.9-0.049-1.17-0.049-3.449s0.008-2.548 0.049-3.447c0.038-0.832 0.177-1.284 0.294-1.584 0.155-0.398 0.34-0.683 0.639-0.981s0.583-0.484 0.981-0.639c0.301-0.117 0.753-0.256 1.585-0.294 0.787-0.036 1.092-0.046 2.683-0.048v0.002zM20.555 10.422c-0.565 0-1.024 0.458-1.024 1.024s0.459 1.024 1.024 1.024c0.565 0 1.024-0.459 1.024-1.024s-0.459-1.024-1.024-1.024zM16 11.618c-2.42 0-4.382 1.962-4.382 4.382s1.962 4.381 4.382 4.381c2.42 0 4.381-1.961 4.381-4.381s-1.961-4.382-4.381-4.382z"></path>
            <path d="M16.001 13.155c1.571 0 2.845 1.273 2.845 2.844s-1.274 2.845-2.845 2.845c-1.571 0-2.845-1.274-2.845-2.845s1.273-2.844 2.845-2.844z"></path>
        </symbol>
        <symbol id="icon-facebook" viewBox="0 0 32 32">
            <path d="M0 16c0-8.837 7.163-16 16-16s16 7.163 16 16c0 8.837-7.163 16-16 16s-16-7.163-16-16zM17.668 25.408v-8.705h2.403l0.319-3h-2.721l0.004-1.501c0-0.782 0.074-1.202 1.198-1.202h1.502v-3h-2.403c-2.887 0-3.903 1.455-3.903 3.902v1.801h-1.799v3h1.799v8.705h3.602z"></path>
        </symbol>
        <symbol id="icon-Arrow" viewBox="0 0 38 32">
            <path d="M0.624 17.219c-0.833-0.833-0.833-2.184 0-3.017l13.576-13.576c0.833-0.833 2.184-0.833 3.017 0s0.833 2.184 0 3.017l-12.068 12.068 12.068 12.068c0.833 0.833 0.833 2.184 0 3.017s-2.184 0.833-3.017 0l-13.576-13.576zM37.892 17.844h-35.759v-4.267h35.759v4.267z"></path>
        </symbol>
    </defs>

</symbol>
</svg>